<svg id="Wordmark" data-name="Wordmark" xmlns="http://www.w3.org/2000/svg" viewBox="0 0 575.62 151.54"><title>Wordmark</title><path d="M62.47 8.24A519.08 519.08 0 007 11.73v14.44l.71 47.54C7.36 112.05 45 135.87 57.09 142.5l3.82 2 3.63-2c12.45-6.64 51.32-30.45 51.32-68.72l.71-48.89V11.73a476.82 476.82 0 00-54.1-3.49z" style="fill:#fff;stroke:#fff;stroke-miterlimit:10;stroke-width:8.75px"/><path d="M84.38 89.44l-5.31-5.74 3.12-2.94-3.33-3.56-2 1.86.29 2.88-7.06-7.54-2.67-.09-5.9 5.24-.07 2.51 5.68 6.16-.29.27-1.08 1-6.88 6.61-20.14-21.73-1.47-1.47-.33 10.5a5.42 5.42 0 00.87 3.6l.24.31a7.47 7.47 0 003.29 2.4A23.52 23.52 0 0048 91.1l1.59.08-1.4.77-.21.1a8.8 8.8 0 01-3.58.56 22.56 22.56 0 01-4.35-.61c.27.3.61.65 1 1l.27.26A10.09 10.09 0 0047 95.89c2.13.4 6.12 1 6.15 1l1.38.19-1.11.59-.12.06a8.2 8.2 0 01-3.85.66 18.69 18.69 0 01-4-.57l.75.82.29.31a9.64 9.64 0 004.43 2.3c.62.18 1.25.33 1.87.47 2.21.48 4.18.69 4.2.69l1.44.15-.85.46-.42.23a7.87 7.87 0 01-4.13.67 15 15 0 01-2.25-.32l-10 9.37 3.34 3.55 10.21-9.58a20.15 20.15 0 008.13 2.26l4.41.15 7.48 7.77h3.92l-16.15-17.5L69.21 93l1-.93.24-.23.19-.17 5.29 5.69 2.68.08 5.89-5.23.07-2.51m25.97-30.11l-.08-.06-.28-.17c-3.87-2.66-11.43-9.87-11.84-9.87-.08 0-26.85 9.74-26.85 9.74a3.37 3.37 0 01-.65.09L69.52 59l-5-1.15-.7-.16-.71-.17h-.23l-.63-.15-.62-.14-1.83-.42-.51-.12-.87-.2-.42-.14-1.15-.27-.5-.08-.77-.18-.47-.1-.29-.07-.83.43-.43.23-.67.35-.43.22-.88.46-.43.23-.68.36-.44.23-1.21.63-.52.21-.94.5h-7.04c-11.68 0-25.21.74-27.51.89l.48-12.73 27.5 10.09.15-.45.17-.45.33-.75.21-.43.22-.42-28.34-14.43.12-3.18c3.36-.35 7.89-.81 13.23-1.25l17.21 15.77.33-.35.35-.33.61-.54.38-.3.38-.28-11.4-14.56c2.69-.18 5.52-.35 8.44-.5l6.28 13.22.44-.16.45-.16.79-.23.46-.12.47-.09-3-12.71 2.28-.05c1.87 0 3.75-.1 5.64-.13L55.85 47.5h.47l.48.05c.27 0 .54.08.81.12l.47.1.46.1 3.89-13.07c2.67 0 5.33 0 8 .09l-8.36 14.38.42.24.41.24.68.46c.13.09.26.18.38.28l.35.27.25-.33 13-15.33c5.15.21 10.08.5 14.6.82L67 53.51c.09.13.19.25.28.39s.18.26.26.39.15.23.22.34l.21.36c.08.14.16.28.23.42s.15.28.22.42l35.5-18.91c2 .18 3.78.37 5.36.53l.62.07.68 22.06zM80 60.37l1.29-.45c3.82-1.37 14.6-5.31 14.6-5.31l-9.57 6.23-6.32-.47zm30.28 17.41a51.45 51.45 0 01-1.15 7.22 58.88 58.88 0 01-4.76 13.31 62.57 62.57 0 01-11.87 16.34c-16.86 16.88-31.75 20.78-31.75 20.78s-13.91-4.36-30.15-20.59a64.57 64.57 0 01-12-16.32 58.65 58.65 0 01-4.5-11.89A53.8 53.8 0 0112.79 80a33.23 33.23 0 01-.33-5.21l.33-.18A58.36 58.36 0 0124 70.53a115.81 115.81 0 0116.88-3.19 160.41 160.41 0 0118.76-1q5.11 0 9.75.23C93.75 67.7 108 73 110.11 73.81l.27.11a30.18 30.18 0 01-.13 3.86M86.18 9.2h-.8c-5.83-.33-12.1-.59-18.49-.67H59.35c-5.53 0-11 .24-16.3.49h-.96c-2 .1-3.91.21-5.79.33h-.99c-16 1-28.17 2.53-28.17 2.53v14.43l.17 11.36v1.07l.09 5.73v1l.42 28.2a59 59 0 006.22 26.63c11.13 22.68 34.11 37 43 41.92l3.81 2 3.62-2c9.27-4.94 33.25-19.45 44.77-42.38a57.58 57.58 0 006.37-26.1l.52-35.51.25-13.23V11.92s-13-1.7-30.2-2.72" style="fill:#104735"/><path d="M13.6 20.4l1.81-.21v6.52l3.17-.35v1.52c-1.66.18-3.32.36-5 .56m7.04-8.81l5-.47v1.52l-3.21.3v1.61l2.73-.25v1.52l-2.73.26V26l3.33-.31v1.52c-1.71.15-3.43.32-5.15.49m8.23-4.1l3.86-.29v1.41l-3.86.28v-1.4m.86-4.78l2.17-.16q1.26 3.91 2.52 7.86l-1.92.13-1.05-4c-.22-.79-.44-1.72-.65-2.55h-.05c-.2.86-.41 1.82-.63 2.64-.36 1.38-.71 2.77-1.06 4.15l-1.85.15 2.52-8.24m8.83 4.09l1.26-1.23 2.57 4.4-2 .1-1.79-3.27m.19-1c.95-.05 1.47-.48 1.47-1.28s-.52-1-1.47-1l-.93.05V22l.93-.06M36 18.38l2.89-.18c1.71-.09 3.11.43 3.11 2.34s-1.4 2.71-3.11 2.81l-1.07.06v2.89l-1.82.11M43.91 18l1.86-.08 2.1 3.92.8 1.74c-.09-.85-.24-2-.24-2.91v-2.89l1.74-.06v8l-1.87.06-2.1-3.94c-.26-.57-.53-1.14-.79-1.72h-.05c.08.89.23 2 .23 2.9v2.86l-1.68.12v-8m14.75 6.21c1 0 1.5-.36 1.5-1.1s-.5-1-1.5-1h-1v2.08h1m-.17-3.42c.89 0 1.28-.38 1.28-1s-.42-.77-1.26-.77h-.87v1.8h.85m-2.67-3.2h2.76c1.67 0 3 .45 3 2a1.88 1.88 0 01-1.06 1.74v.05a1.83 1.83 0 011.45 1.89c0 1.63-1.38 2.36-3.13 2.38h-3m9.33-2.92c-.81-1.73-1.62-3.45-2.42-5.18h1.94l.72 1.85c.22.61.43 1.16.66 1.79h.05c.22-.62.46-1.17.68-1.77s.47-1.23.71-1.84h1.9q-1.2 2.61-2.41 5.17v2.87h-1.82m10.71-1.26c1.37.05 2.29-.58 2.29-2.5s-.92-2.56-2.29-2.61h-.34v5.11h.34m-2.16-6.64l2.27.07c2.46.09 4 1.39 4 4.15s-1.59 4-3.94 3.89l-2.38-.07m13.39-3.45c0-1.61-.69-2.61-1.79-2.67s-1.78.85-1.78 2.46.69 2.67 1.78 2.74 1.79-.92 1.79-2.53M81.63 22c0-2.62 1.49-4.06 3.65-3.94s3.66 1.74 3.66 4.36-1.49 4.1-3.66 4-3.65-1.77-3.65-4.42m9.19-3.42l1.82.14v8l-1.82-.13m12.68-2.85c0-2.66 1.77-4 3.91-3.79a3.93 3.93 0 012.53 1.33l-1 1.06a2.28 2.28 0 00-1.51-.81c-1.23-.14-2.11.74-2.11 2.35s.75 2.69 2.25 2.86a1.33 1.33 0 00.85-.15v-1.38c-.44-.06-.88-.1-1.33-.15v-1.49l2.94.34v3.7a3.48 3.48 0 01-2.64.67 4.27 4.27 0 01-3.93-4.54m-8.11-4.81l1.86.16q1 2.09 2.09 4.18c.27.61.53 1.23.8 1.84h.05c-.09-.85-.24-2-.24-2.94v-2.84l1.73.16v8l-1.86-.18q-1-2.1-2.09-4.19l-.79-1.83h-.05c.08.89.23 2 .23 2.93v2.85L95.35 27M465 70.94c-1.41-9.49-6.17-16.64-14.61-20.88a33 33 0 00-20.23-2.85c-13.58 2-25.6 13.31-25.63 30.37 0 .78.08 1.77.16 2.76 1 11 6 19.09 15.84 23.66a32.75 32.75 0 0017.79 2.62c8.9-1 16.25-5 21.6-12.52 4.93-6.92 6.33-14.8 5.08-23.16m-16.93 20.43c-2.35 6.36-7 10-12.89 10a12.79 12.79 0 01-10.66-5.94c-2.84-4-4-8.7-4.48-13.56a48.24 48.24 0 01.89-16.38c1-3.88 2.46-7.54 5.57-10.14a12.68 12.68 0 0118.65 2.43 25.72 25.72 0 014.51 12.17c.34 2.5.44 5 .56 6.57-.12 5.72-.49 10.4-2.15 14.89m119.15-42.27h-21.15c.11 1.66.3 3.2.39 4.8.71.17 1.12.25 1.53.37 3.11.85 3.64 2.25 1.94 5s-9.66 19.47-9.66 19.47S533 65.75 530.11 60c-.48-1-2.67-4.57 1.07-5.56 1-.25 2-.36 3.17-.58.07-1.62.37-4.74.37-4.74h-28c.14 1.68.27 3.26.39 4.81.59.14 4.87 1.31 6.86 4.3 1.67 2.51 12.33 23.19 16 28.82l.06 9.41a2.24 2.24 0 01-1.84 2.33l-1.34.38-2.8.8c0 .06-.36 4.49-.36 4.5h26.92s-.29-3.06-.38-4.5c-1.49-.42-2.81-.81-4.15-1.18l-.37-.13a1.92 1.92 0 01-1.37-1.52v-.67c0-1.57-.25-9 .09-9.58l10.75-22.57C558 59.76 561 55.27 566.83 54c.11-.93.39-4.84.39-4.84m-162.88 4.4c-.84-6-4.58-9.93-9.85-12.52S383.74 37.72 378 37.7h-29.77c.09 1.52.28 3 .36 4.44v.18c1.54.44 2.92.84 4.29 1.26a2.2 2.2 0 011.73 2.38V96.5a2.24 2.24 0 01-1.84 2.33l-4.12 1.17v.19c-.09 1.38-.37 4.31-.37 4.32h26.92s-.28-3-.37-4.48l-4.14-1.18a2.2 2.2 0 01-1.75-1.65v-.67c0-15.1.06-44.32.11-52.24a2 2 0 012-2c1.88 0 3.67-.08 5.46 0a12.78 12.78 0 0111.79 9.41 20.3 20.3 0 01.15 12.1c-1.58 5.26-4.68 9.73-13.86 9.86l-.35 4.6c8.33.16 15.9-1.13 22.53-6.24 6-4.66 8.64-10.88 7.57-18.46M205.56 40.8a47.84 47.84 0 00-29.21-3c-.84.18-1.68.37-2.52.58a42.45 42.45 0 00-4.18 1.33 34.31 34.31 0 00-12 7.39 34.55 34.55 0 00-8.89 14.47 38.71 38.71 0 00-.95 17.89 38 38 0 001.93 7.26c3.3 8.72 9.79 14.78 19.47 18.07a43.07 43.07 0 0022.31 1.57 42.63 42.63 0 008.39-2.22 55.4 55.4 0 008.91-4.47 3.62 3.62 0 001.24-1.18 3.88 3.88 0 00.54-2c.1-2.68.47-5.76.71-8.43.18-2 .3-5.09.49-7.2l-6.89.35a1.85 1.85 0 010 .23c0 .22-.07.42-.1.61v.06c-1 5.18-2.71 10.5-6.45 14.23a19.09 19.09 0 01-12.53 5 22.13 22.13 0 01-3.86-.29 19.25 19.25 0 01-7.65-3l-.21-.16c-.33-.23-.66-.46-1-.71-.16-.12-.31-.26-.47-.39s-.45-.37-.66-.57-.41-.4-.61-.6-.32-.29-.46-.45-.35-.39-.52-.59l-.49-.56c-.11-.13-.21-.28-.32-.42s-.42-.53-.62-.82a.56.56 0 01-.05-.08 24.6 24.6 0 01-2.34-4.17 43.41 43.41 0 01-2.3-29.78 27.18 27.18 0 012.16-5.57 19.71 19.71 0 018.28-8.37c.29-.16.57-.31.88-.45.09-.05.18-.08.27-.12a22.37 22.37 0 0111.2-2.24 18.32 18.32 0 018.94 3.33 22.63 22.63 0 018.11 12c0 .06 0 .12.05.18.25.81.49 1.61.72 2.35l6.07-.3-.81-16c-.45-.32-.92-.69-1.42-1a29.51 29.51 0 00-3.11-1.72m305.14 45.33c-.53 2-1 4-1.63 5.88a8.11 8.11 0 01-6 5.6c-2.94.74-8.26.88-11 .91a1.71 1.71 0 01-1.72-1.7V57.33a2.24 2.24 0 012-2.47c1.67-.33 3.31-.71 4.93-1.06.12-1.67.28-3.15.39-4.64h-27.63s.25 3.12.39 4.67l3.91 1.05a2.5 2.5 0 012.05 2.69v38.62a2.42 2.42 0 01-2 2.66c-1.34.33-2.65.76-3.93 1.14-.14 1.57-.24 3-.38 4.51h44.24l1.61-19.84h-4.76c-.14.51-.29 1-.43 1.51m-187.7 0c-.53 2-1 4-1.63 5.88a8.11 8.11 0 01-6 5.6c-2.94.74-8.26.88-11 .91a1.71 1.71 0 01-1.72-1.7V57.33a2.24 2.24 0 012-2.47c1.67-.33 3.31-.71 4.94-1.06.11-1.67.37-4.64.37-4.64h-27.62s.25 3.12.39 4.67l3.91 1.05a2.49 2.49 0 012 2.68v38.63a2.42 2.42 0 01-2 2.66c-1.34.33-2.65.76-3.93 1.14-.14 1.57-.23 3-.37 4.51h44.23l1.61-19.84h-4.75c-.14.51-.3 1-.44 1.51m-49.39 12.95a5.34 5.34 0 01-4-3.71c-3.79-11-7.69-22-11.56-32.94q-2.34-6.67-4.66-13.34h-20.91l.43 4.8s1.21.11 2.38.27a1.5 1.5 0 011.27 1.89c-1.16 4.56-11.4 33.1-13.36 38.59-1.42 4-7.48 5.14-8.08 5.33-.1 1.54-.26 3-.36 4.5h21.62c-.14-1.58-.24-3.05-.37-4.47a20.39 20.39 0 01-3.8-.84 2.08 2.08 0 01-.92-2.86c1.26-3.12 2.12-6 3.23-9.16h18c.85 3 1.64 6 2.37 9.1.4 1.63-.17 2.39-1.83 2.85-1.27.37-2.6.56-4 .86-.13 1.48-.25 3-.37 4.51h28.67c-.14-1.61-.24-3.09-.37-4.56-1.22-.29-2.31-.53-3.4-.82m-37.37-16.8c2.42-6.93 4.73-13.68 7.1-20.45h.34c2.23 6.77 4.62 13.53 6.92 20.46z" style="fill:#fff"/></svg>